<svg xmlns="http://www.w3.org/2000/svg" width="24" height="24" viewBox="0 0 24 24" fill="none">
  <path d="M15 10.7145C15 10.2598 14.8194 9.8237 14.4978 9.50217C14.1763 9.18063 13.7402 9 13.2855 9H7.7145C7.48935 9 7.2664 9.04435 7.05839 9.13051C6.85038 9.21667 6.66137 9.34296 6.50217 9.50217C6.34296 9.66137 6.21667 9.85038 6.13051 10.0584C6.04435 10.2664 6 10.4893 6 10.7145V16.2855C6 16.5107 6.04435 16.7336 6.13051 16.9416C6.21667 17.1496 6.34296 17.3386 6.50217 17.4978C6.66137 17.657 6.85038 17.7833 7.05839 17.8695C7.2664 17.9557 7.48935 18 7.7145 18H13.2855C13.5107 18 13.7336 17.9557 13.9416 17.8695C14.1496 17.7833 14.3386 17.657 14.4978 17.4978C14.657 17.3386 14.7833 17.1496 14.8695 16.9416C14.9557 16.7336 15 16.5107 15 16.2855V10.7145Z" stroke="#0d79cc" stroke-width="1.5" stroke-linecap="round" stroke-linejoin="round"/>
  <path d="M9 7.7145C9 7.48935 9.04435 7.2664 9.13051 7.05839C9.21667 6.85038 9.34296 6.66137 9.50217 6.50217C9.66137 6.34296 9.85038 6.21667 10.0584 6.13051C10.2664 6.04435 10.4893 6 10.7145 6H16.2855C16.7402 6 17.1763 6.18063 17.4978 6.50217C17.8194 6.8237 18 7.25979 18 7.7145V13.2855C18 13.5107 17.9557 13.7336 17.8695 13.9416C17.7833 14.1496 17.657 14.3386 17.4978 14.4978C17.3386 14.657 17.1496 14.7833 16.9416 14.8695C16.7336 14.9557 16.5107 15 16.2855 15" stroke="#0d79cc" stroke-width="1.5" stroke-linecap="square" stroke-linejoin="round"/>
</svg>