<svg width="80" height="70" viewBox="0 0 80 70" fill="none" xmlns="http://www.w3.org/2000/svg">
<path d="M27.8529 46.975V47M37.7794 46.975V47M17.9265 46.975V47M8 46.975V47M8 36.9813V37.0062M8 26.9875V27.0125M8 16.9938V17.0187M8 7V7.02498M17.9265 7V7.02498M27.8529 7V7.02498M37.7794 7V7.02498M68 7V7.02498M68 16.9938V17.0187M68 26.9875V27.0125M68 36.9813V37.0062M48.1471 7V7.02498M58.0735 7V7.02498M48.1475 47V47.025M58.0739 47V47.025" stroke="#AAACAF" stroke-width="3" stroke-linecap="round" stroke-linejoin="round"/>
<path d="M62 41L74 45L68.6667 47.6667L66 53L62 41Z" stroke="#AAACAF" stroke-width="1.5" stroke-linecap="round" stroke-linejoin="round"/>
<ellipse cx="38" cy="27" rx="19" ry="10" fill="#D9D9D9"/>
</svg>
