<svg width="450" height="450" viewBox="0 0 450 450" fill="none" xmlns="http://www.w3.org/2000/svg">
<path d="M105 311.152C105 329.792 120.11 344.902 138.75 344.902L311.25 344.902C329.89 344.902 345 329.792 345 311.152" stroke="#292929" stroke-width="22.5" stroke-linecap="round" stroke-linejoin="round"/>
<path d="M226.455 247.611C225.583 247.152 224.541 247.152 223.669 247.61L174.803 273.275C172.608 274.428 170.043 272.564 170.462 270.119L179.796 215.767C179.963 214.795 179.64 213.803 178.933 213.115L139.356 174.631C137.576 172.9 138.556 169.88 141.013 169.524L195.629 161.617C196.604 161.476 197.447 160.864 197.883 159.981L222.316 110.524C223.414 108.302 226.584 108.302 227.682 110.524L252.115 159.981C252.552 160.864 253.395 161.476 254.369 161.617L308.985 169.524C311.442 169.88 312.423 172.9 310.643 174.631L271.066 213.115C270.359 213.803 270.036 214.795 270.203 215.767L279.535 270.112C279.955 272.558 277.387 274.423 275.192 273.267L226.455 247.611Z" fill="#292929" stroke="#292929" stroke-width="22.5" stroke-linecap="round" stroke-linejoin="round"/>
</svg>
