<svg width="20" height="20" viewBox="0 0 20 20" fill="none" xmlns="http://www.w3.org/2000/svg">
<g clip-path="url(#clip0_4943_7290)">
<path d="M16.4225 8.63929C16.7628 7.61788 16.6456 6.49898 16.1014 5.56991C15.283 4.14491 13.6377 3.41179 12.0308 3.75679C11.3159 2.95148 10.2889 2.49351 9.2122 2.50007C7.5697 2.49632 6.11235 3.55382 5.60704 5.11663C4.55188 5.33273 3.6411 5.9932 3.10813 6.92929C2.2836 8.35054 2.47157 10.1421 3.57313 11.3609C3.23282 12.3823 3.35001 13.5012 3.89423 14.4302C4.71267 15.8552 6.35798 16.5884 7.96485 16.2434C8.67923 17.0487 9.70673 17.5066 10.7834 17.4996C12.4269 17.5038 13.8847 16.4454 14.39 14.8812C15.4452 14.6651 16.3559 14.0046 16.8889 13.0685C17.7125 11.6473 17.5241 9.8571 16.423 8.63835L16.4225 8.63929ZM10.7844 16.5194C10.1267 16.5204 9.4897 16.2902 8.98485 15.8688C9.00782 15.8566 9.04767 15.8346 9.07345 15.8187L12.0603 14.0937C12.2131 14.0069 12.3069 13.8443 12.3059 13.6685V9.45773L13.5683 10.1866C13.5819 10.1932 13.5908 10.2063 13.5927 10.2213V13.7084C13.5908 15.259 12.335 16.5162 10.7844 16.5194ZM4.74501 13.9399C4.41548 13.3709 4.29688 12.7038 4.40985 12.0565C4.43188 12.0696 4.47079 12.0935 4.49845 12.1094L7.48532 13.8344C7.63673 13.923 7.82423 13.923 7.9761 13.8344L11.6225 11.7288V13.1866C11.6234 13.2016 11.6164 13.2162 11.6047 13.2255L8.58548 14.9688C7.24063 15.7432 5.52313 15.2829 4.74548 13.9399H4.74501ZM3.95892 7.42007C4.28704 6.85007 4.80501 6.41413 5.42188 6.18773C5.42188 6.21351 5.42048 6.25898 5.42048 6.29085V9.74132C5.41954 9.91663 5.51329 10.0793 5.66563 10.166L9.31204 12.2712L8.0497 13.0001C8.03704 13.0085 8.0211 13.0099 8.00704 13.0038L4.98735 11.2591C3.64532 10.4819 3.18501 8.76491 3.95845 7.42054L3.95892 7.42007ZM14.3305 9.83366L10.6841 7.72804L11.9464 6.9996C11.9591 6.99116 11.975 6.98976 11.9891 6.99585L15.0088 8.73913C16.3531 9.51585 16.8139 11.2357 16.0372 12.5801C15.7086 13.1491 15.1911 13.5851 14.5747 13.8119V10.2584C14.5761 10.083 14.4828 9.92085 14.3309 9.83366H14.3305ZM15.5867 7.94273C15.5647 7.92913 15.5258 7.9057 15.4981 7.88976L12.5113 6.16476C12.3599 6.07616 12.1724 6.07616 12.0205 6.16476L8.37407 8.27038V6.81257C8.37313 6.79757 8.38017 6.78304 8.39188 6.77366L11.4111 5.03179C12.7559 4.25601 14.4753 4.71773 15.2506 6.06304C15.5783 6.63116 15.6969 7.29632 15.5858 7.94273H15.5867ZM7.68782 10.541L6.42501 9.8121C6.41142 9.80554 6.40251 9.79241 6.40063 9.77741V6.29038C6.40157 4.73788 7.6611 3.47976 9.2136 3.48069C9.87032 3.48069 10.5059 3.71132 11.0108 4.13132C10.9878 4.14351 10.9484 4.16554 10.9222 4.18148L7.93532 5.90648C7.78251 5.99319 7.68876 6.15538 7.6897 6.33116L7.68782 10.5401V10.541ZM8.3736 9.06257L9.99782 8.1246L11.622 9.0621V10.9376L9.99782 11.8751L8.3736 10.9376V9.06257Z" fill="black"/>
</g>
<defs>
<clipPath id="clip0_4943_7290">
<rect width="15" height="15" fill="white" transform="translate(2.5 2.5)"/>
</clipPath>
</defs>
</svg>
